<svg width="178" height="48" viewBox="0 0 178 48" fill="none" xmlns="http://www.w3.org/2000/svg">
<path d="M134.307 0.376247C130.994 0.87317 124.755 2.25351 120.724 3.38539C117.163 4.40684 109.24 6.86384 109.074 7.02948C108.798 7.27794 110.013 8.24418 110.4 8.07854C112.111 7.36076 119.482 5.01419 122.436 4.2412C131.988 1.70137 139.166 1.31488 142.755 3.16453C144.494 4.02034 145.377 5.70436 145.101 7.4988C144.88 8.79632 143.997 10.9773 143.086 12.4404L142.451 13.4895H145.156H147.89L148.607 11.9711C150.319 8.49264 150.623 4.76573 149.353 2.88846C148.552 1.75659 147.117 0.87317 145.129 0.34864C143.334 -0.120675 137.675 -0.120675 134.307 0.376247Z" fill="white"/>
<path d="M98.9703 8.68585C99.274 8.93431 99.7709 9.2932 100.047 9.51406C100.351 9.7073 100.544 9.92816 100.461 9.98337C100.406 10.0386 99.3568 10.4251 98.1421 10.8668C96.9274 11.2809 93.8078 12.4128 91.1852 13.379C87.0165 14.925 86.2436 15.1458 84.5043 15.1458H82.5442V16.0017C82.5442 16.6918 82.3786 16.8851 81.5228 17.2716C80.9431 17.4924 78.8725 18.431 76.9125 19.3145C74.98 20.1979 73.296 20.9433 73.1855 20.9433C73.0751 20.9433 72.5782 19.6457 72.0537 18.0446L71.115 15.1458L66.698 15.2011L62.3085 15.2839L61.8116 16.6642C61.5631 17.4096 60.3484 20.9709 59.1061 24.5321C57.1736 30.1915 56.7871 31.1302 55.9865 31.8203C55.4896 32.2344 54.1645 33.3939 53.0878 34.3878C51.7627 35.5473 51.0725 36.0166 51.0449 35.7405C51.0173 35.492 50.9621 35.1608 50.9345 35.0227C50.9069 34.8571 50.8517 34.6086 50.824 34.4706C50.7964 34.3049 48.1186 34.1945 43.3702 34.1945H35.9164L35.1434 33.532L34.3704 32.8694L34.2876 24.0076L34.2048 15.1458H30.8919H27.5791L27.662 24.4493L27.7448 33.7804L28.5178 35.354C29.3736 37.0656 30.6435 38.2251 32.576 39.0257C33.6526 39.4674 34.7845 39.5502 40.9408 39.6607C44.8334 39.7159 48.0358 39.8263 48.0358 39.8815C48.0358 39.9643 47.7597 40.3784 47.4284 40.8202C46.6278 41.9244 46.6002 43.8293 47.3732 44.8783C47.6769 45.2925 48.5051 45.9826 49.1676 46.4243C54.3025 49.5991 70.204 47.8599 87.403 42.2557L91.5165 40.903L90.2189 40.7097C89.1699 40.5165 88.4245 40.6545 86.216 41.3171C70.3973 46.2035 61.7839 47.5562 57.8638 45.817C55.9037 44.9612 55.2411 42.9183 56.1522 40.6821L56.5663 39.7159H58.4435H60.3208L61.5355 36.1822C62.7502 32.7314 62.7778 32.6485 64.4342 31.2406C67.1121 28.9492 68.7409 27.7621 68.9065 27.9278C68.9893 28.0106 69.9556 30.6609 71.0322 33.8356L73.0199 39.5778L76.2775 39.6607C78.0443 39.6883 79.5075 39.6883 79.5075 39.6055C79.5075 39.5226 79.3695 39.1361 79.2038 38.6944C78.5965 37.1484 74.2622 24.4217 74.2622 24.2285C74.2622 24.0076 82.0197 19.2869 82.3786 19.2869C82.4614 19.2869 82.5442 19.5905 82.5442 19.977V20.6672H91.1024C100.157 20.6672 100.682 20.7224 101.344 21.9923C101.897 22.9862 101.897 31.8756 101.344 32.8694C100.737 34.0565 99.9917 34.1945 94.2771 34.1945H88.8938V29.5014V24.8082H85.719H82.5442V32.2897V39.7711L92.2894 39.6607C103.47 39.5226 103.801 39.4674 106.038 37.2313C107.97 35.2988 108.219 34.1945 108.219 27.4309C108.219 20.612 107.97 19.4801 106.038 17.6028C103.995 15.6152 102.973 15.3667 96.2096 15.1458C93.0348 15.063 90.5502 14.9526 90.7159 14.925C90.8815 14.8974 92.5655 14.152 94.4428 13.241C98.639 11.2809 100.489 10.4527 100.792 10.4527C100.93 10.4527 100.986 10.7564 100.875 11.1429C100.792 11.5294 100.792 11.833 100.93 11.833C101.096 11.833 104.878 9.12756 105.596 8.4926C105.734 8.35457 104.216 8.24414 102.145 8.24414C98.7218 8.27175 98.4734 8.29936 98.9703 8.68585Z" fill="white"/>
<path d="M8.28201 15.2286C8.28201 15.2562 7.09491 18.7623 5.63175 23.0137C1.62877 34.6362 -3.05176e-05 39.495 -3.05176e-05 39.6054C-3.05176e-05 39.6882 1.43552 39.6882 3.20236 39.6606L6.40474 39.5778L9.4691 30.5228C11.1531 25.5536 12.6163 21.4954 12.6991 21.4954C12.8095 21.4954 14.2175 25.4431 15.8187 30.2467C17.4475 35.0779 18.8554 39.1913 18.9106 39.357C19.0487 39.7711 24.9841 39.8815 25.2326 39.4674C25.343 39.3294 25.0393 38.1699 24.5976 36.9C24.1559 35.6577 22.4443 30.7436 20.8431 26.0505C19.2143 21.3297 17.6959 16.9679 17.4751 16.3053L17.061 15.1458H12.6715C10.2697 15.1458 8.28201 15.1734 8.28201 15.2286Z" fill="white"/>
<path d="M112.084 17.8788V20.6395L121.056 20.7223C129.945 20.8051 130.028 20.8051 130.635 21.4401C131.243 22.0198 131.27 22.2959 131.353 26.9338C131.491 34.36 131.657 34.1944 123.954 34.1944H118.709V29.5012V24.8081H115.396H112.084V32.2619V39.7158H120.724C131.822 39.7158 133.506 39.4397 135.715 37.2588C137.537 35.4643 137.62 35.0778 137.62 27.4307C137.62 21.3572 137.565 20.4186 137.123 19.5352C136.377 18.0444 135.052 16.8021 133.341 16.0015L131.822 15.2838L121.967 15.2009L112.084 15.0905V17.8788Z" fill="white"/>
<path d="M141.788 17.1612C141.678 18.2655 141.678 19.5078 141.761 19.9219L141.954 20.6673H145.101H148.248V17.9066V15.1459H145.101H141.954L141.788 17.1612Z" fill="white"/>
<path d="M152.169 27.3481L152.251 39.578L155.371 39.6608L158.463 39.7436V32.2622C158.463 28.1763 158.573 24.8083 158.711 24.8083C158.822 24.8083 161.582 27.9831 164.812 31.8757C168.042 35.7406 170.858 39.1086 171.107 39.3295C171.41 39.6332 172.156 39.716 174.585 39.6608L177.65 39.578L177.732 27.3481L177.788 15.1459H174.613H171.438V22.5998C171.438 26.6856 171.328 30.0536 171.217 30.0536C171.079 30.0536 168.208 26.6856 164.812 22.5998L158.656 15.1459H155.371H152.113L152.169 27.3481Z" fill="white"/>
<path d="M141.761 25.1672C141.678 25.3605 141.65 28.6733 141.678 32.5382L141.761 39.578L145.018 39.6608L148.248 39.7436V32.2622V24.8083H145.074C142.755 24.8083 141.844 24.8911 141.761 25.1672Z" fill="white"/>
<path d="M9.38629 36.9551V39.7158H12.6991H16.0119V36.9551V34.1944H12.6991H9.38629V36.9551Z" fill="white"/>
<path d="M63.5508 36.8725L63.6336 39.578L66.7532 39.6608L69.8452 39.7436V36.9553V34.1946H66.6704H63.468L63.5508 36.8725Z" fill="white"/>
</svg>
