<svg width="49" height="48" viewBox="0 0 49 48" fill="none" xmlns="http://www.w3.org/2000/svg">
<rect x="0.333252" width="48" height="48" rx="8" fill="#00463A"/>
<path d="M37.6667 5.3335H11.0001C10.2626 5.3335 9.66675 5.92933 9.66675 6.66683V41.3335C9.66675 42.071 10.2626 42.6668 11.0001 42.6668H37.6667C38.4042 42.6668 39.0001 42.071 39.0001 41.3335V6.66683C39.0001 5.92933 38.4042 5.3335 37.6667 5.3335ZM12.6667 8.3335H36.0001V17.0002H12.6667V8.3335ZM36.0001 28.3335H12.6667V19.6668H36.0001V28.3335ZM36.0001 39.6668H12.6667V31.0002H36.0001V39.6668ZM15.6667 12.6668C15.6667 13.1089 15.8423 13.5328 16.1549 13.8453C16.4675 14.1579 16.8914 14.3335 17.3334 14.3335C17.7754 14.3335 18.1994 14.1579 18.5119 13.8453C18.8245 13.5328 19.0001 13.1089 19.0001 12.6668C19.0001 12.2248 18.8245 11.8009 18.5119 11.4883C18.1994 11.1758 17.7754 11.0002 17.3334 11.0002C16.8914 11.0002 16.4675 11.1758 16.1549 11.4883C15.8423 11.8009 15.6667 12.2248 15.6667 12.6668ZM15.6667 24.0002C15.6667 24.4422 15.8423 24.8661 16.1549 25.1787C16.4675 25.4912 16.8914 25.6668 17.3334 25.6668C17.7754 25.6668 18.1994 25.4912 18.5119 25.1787C18.8245 24.8661 19.0001 24.4422 19.0001 24.0002C19.0001 23.5581 18.8245 23.1342 18.5119 22.8216C18.1994 22.5091 17.7754 22.3335 17.3334 22.3335C16.8914 22.3335 16.4675 22.5091 16.1549 22.8216C15.8423 23.1342 15.6667 23.5581 15.6667 24.0002ZM15.6667 35.3335C15.6667 35.7755 15.8423 36.1994 16.1549 36.512C16.4675 36.8246 16.8914 37.0002 17.3334 37.0002C17.7754 37.0002 18.1994 36.8246 18.5119 36.512C18.8245 36.1994 19.0001 35.7755 19.0001 35.3335C19.0001 34.8915 18.8245 34.4675 18.5119 34.155C18.1994 33.8424 17.7754 33.6668 17.3334 33.6668C16.8914 33.6668 16.4675 33.8424 16.1549 34.155C15.8423 34.4675 15.6667 34.8915 15.6667 35.3335Z" fill="white"/>
</svg>
