<svg width="48" height="48" viewBox="0 0 48 48" fill="none" xmlns="http://www.w3.org/2000/svg">
<rect width="48" height="48" rx="8" fill="#00463A"/>
<g clip-path="url(#clip0_1634_751)">
<path d="M41.4248 40.2498C41.4248 40.9128 41.1614 41.5487 40.6926 42.0175C40.2237 42.4864 39.5878 42.7498 38.9248 42.7498H8.9248C8.26176 42.7498 7.62588 42.4864 7.15704 42.0175C6.6882 41.5487 6.4248 40.9128 6.4248 40.2498V7.74976C6.4248 7.08671 6.6882 6.45083 7.15704 5.98199C7.62588 5.51315 8.26176 5.24976 8.9248 5.24976H33.9248C34.5756 5.25069 35.2005 5.5054 35.6665 5.95976L40.6665 10.7648C40.9052 10.9974 41.095 11.2755 41.2246 11.5827C41.3543 11.8898 41.4212 12.2197 41.4215 12.5531L41.4248 40.2498Z" stroke="white" stroke-width="2.5" stroke-linecap="round" stroke-linejoin="round"/>
<path d="M13.9248 16.4998V35.2498H33.9248" stroke="white" stroke-width="2.5" stroke-linecap="round" stroke-linejoin="round"/>
<path d="M13.9248 30.25L19.5281 25.02C20.1326 24.4703 20.9203 24.1656 21.7373 24.1656C22.5543 24.1656 23.342 24.4703 23.9465 25.02L25.1565 26.15C25.5031 26.4671 25.9141 26.7057 26.3614 26.8495C26.8086 26.9933 27.2816 27.039 27.7481 26.9833C28.2103 26.935 28.656 26.785 29.0534 26.5441C29.4507 26.3032 29.7899 25.9774 30.0465 25.59L32.6665 21.5" stroke="white" stroke-width="2.5" stroke-linecap="round" stroke-linejoin="round"/>
</g>
<defs>
<clipPath id="clip0_1634_751">
<rect width="40" height="40" fill="white" transform="translate(4 3.99976)"/>
</clipPath>
</defs>
</svg>
