<svg width="48" height="48" viewBox="0 0 48 48" fill="none" xmlns="http://www.w3.org/2000/svg">
<rect width="48" height="48" rx="8" fill="#00463A"/>
<path d="M37.0084 31.8284C35.9654 30.7846 34.7468 29.9327 33.4084 29.3117C35.2959 27.7825 36.5 25.4492 36.5 22.8325C36.5 18.2159 32.65 14.4284 28.0334 14.4992C23.4875 14.57 19.825 18.2742 19.825 22.8325C19.825 25.4492 21.0334 27.7825 22.9167 29.3117C21.578 29.9323 20.3593 30.7842 19.3167 31.8284C17.0417 34.1075 15.75 37.1159 15.6667 40.3242C15.6656 40.3687 15.6734 40.4129 15.6896 40.4543C15.7059 40.4957 15.7303 40.5335 15.7613 40.5653C15.7924 40.5971 15.8295 40.6224 15.8705 40.6397C15.9115 40.657 15.9555 40.6659 16 40.6659H18.3334C18.5125 40.6659 18.6625 40.5242 18.6667 40.345C18.7459 37.9284 19.725 35.6659 21.4459 33.9492C22.3264 33.0639 23.3739 32.3621 24.5275 31.8843C25.6811 31.4066 26.9181 31.1624 28.1667 31.1659C30.7042 31.1659 33.0917 32.1534 34.8875 33.9492C36.6042 35.6659 37.5834 37.9284 37.6667 40.345C37.6709 40.5242 37.8209 40.6659 38 40.6659H40.3334C40.3778 40.6659 40.4219 40.657 40.4629 40.6397C40.5039 40.6224 40.541 40.5971 40.5721 40.5653C40.6031 40.5335 40.6275 40.4957 40.6438 40.4543C40.66 40.4129 40.6678 40.3687 40.6667 40.3242C40.5834 37.1159 39.2917 34.1075 37.0084 31.8284ZM28.1667 28.1659C26.7417 28.1659 25.4 27.6117 24.3959 26.6034C23.8919 26.1034 23.4938 25.507 23.2254 24.8498C22.9569 24.1927 22.8236 23.4882 22.8334 22.7784C22.8459 21.4117 23.3917 20.0909 24.3459 19.1117C25.3459 18.0867 26.6834 17.5159 28.1125 17.4992C29.525 17.4867 30.8959 18.0367 31.9042 19.0242C32.9375 20.0367 33.5042 21.3909 33.5042 22.8325C33.5042 24.2575 32.95 25.595 31.9417 26.6034C31.447 27.1004 30.8586 27.4944 30.2107 27.7626C29.5627 28.0308 28.868 28.1679 28.1667 28.1659ZM17.7292 23.9325C17.6917 23.57 17.6709 23.2034 17.6709 22.8325C17.6709 22.17 17.7334 21.5242 17.85 20.895C17.8792 20.745 17.8 20.5909 17.6625 20.5284C17.0959 20.2742 16.575 19.9242 16.125 19.4825C15.5948 18.9684 15.1775 18.3494 14.8999 17.6649C14.6222 16.9805 14.4903 16.2458 14.5125 15.5075C14.55 14.17 15.0875 12.8992 16.025 11.9409C17.0542 10.8867 18.4375 10.3117 19.9084 10.3284C21.2375 10.3409 22.5209 10.8534 23.4917 11.7617C23.8209 12.07 24.1042 12.4117 24.3417 12.7784C24.425 12.9075 24.5875 12.9617 24.7292 12.9117C25.4625 12.6575 26.2375 12.4784 27.0334 12.395C27.2667 12.37 27.4 12.12 27.2959 11.9117C25.9417 9.23252 23.175 7.38252 19.975 7.33252C15.3542 7.26169 11.5042 11.0492 11.5042 15.6617C11.5042 18.2784 12.7084 20.6117 14.5959 22.1409C13.2709 22.7534 12.05 23.5992 10.9917 24.6575C8.70836 26.9367 7.41669 29.945 7.33336 33.1575C7.33224 33.202 7.34004 33.2462 7.3563 33.2876C7.37255 33.329 7.39693 33.3668 7.42799 33.3986C7.45906 33.4305 7.49618 33.4558 7.53717 33.473C7.57817 33.4903 7.62221 33.4992 7.66669 33.4992H10.0042C10.1834 33.4992 10.3334 33.3575 10.3375 33.1784C10.4167 30.7617 11.3959 28.4992 13.1167 26.7825C14.3417 25.5575 15.8417 24.7075 17.4792 24.295C17.6417 24.2534 17.75 24.0992 17.7292 23.9325Z" fill="white"/>
</svg>
