<svg width="32" height="32" viewBox="0 0 32 32" fill="none" xmlns="http://www.w3.org/2000/svg">
<path d="M5.36664 19.8C5.01109 19.5334 4.83909 19.1836 4.85064 18.7507C4.8622 18.3178 5.04531 17.9676 5.39998 17.7C5.64442 17.5223 5.91109 17.4334 6.19998 17.4334C6.48887 17.4334 6.75553 17.5223 6.99998 17.7L16 24.6667L25 17.7C25.2444 17.5223 25.5111 17.4334 25.8 17.4334C26.0889 17.4334 26.3555 17.5223 26.6 17.7C26.9555 17.9667 27.1391 18.3165 27.1506 18.7494C27.1622 19.1823 26.9898 19.5325 26.6333 19.8L17.6333 26.8C17.1444 27.1778 16.6 27.3667 16 27.3667C15.4 27.3667 14.8555 27.1778 14.3666 26.8L5.36664 19.8ZM14.3666 20.0667L6.69998 14.1C6.01109 13.5667 5.66664 12.8667 5.66664 12C5.66664 11.1334 6.01109 10.4334 6.69998 9.90003L14.3666 3.93337C14.8555 3.55559 15.4 3.3667 16 3.3667C16.6 3.3667 17.1444 3.55559 17.6333 3.93337L25.3 9.90003C25.9889 10.4334 26.3333 11.1334 26.3333 12C26.3333 12.8667 25.9889 13.5667 25.3 14.1L17.6333 20.0667C17.1444 20.4445 16.6 20.6334 16 20.6334C15.4 20.6334 14.8555 20.4445 14.3666 20.0667ZM16 17.9334L23.6666 12L16 6.0667L8.33331 12L16 17.9334Z" fill="#045000"/>
</svg>
