<svg width="33" height="32" viewBox="0 0 33 32" fill="none" xmlns="http://www.w3.org/2000/svg">
<path d="M15.1668 26.6666C14.4334 26.6666 13.8059 26.4057 13.2841 25.884C12.7623 25.3622 12.501 24.7342 12.5001 24V21.3333C12.5001 20.6 12.7614 19.9724 13.2841 19.4506C13.8068 18.9288 14.4343 18.6675 15.1668 18.6666H17.8334C18.5668 18.6666 19.1948 18.928 19.7174 19.4506C20.2401 19.9733 20.501 20.6008 20.5001 21.3333V24C20.5001 24.7333 20.2392 25.3613 19.7174 25.884C19.1957 26.4066 18.5677 26.6675 17.8334 26.6666H15.1668ZM15.1668 24H17.8334V21.3333H15.1668V24ZM4.50009 16.5333C4.18898 16.7555 3.85565 16.8444 3.50009 16.8C3.14454 16.7555 2.85565 16.5777 2.63343 16.2666C2.41121 15.9555 2.32809 15.6222 2.38409 15.2666C2.44009 14.9111 2.61209 14.6222 2.90009 14.4L14.8668 5.23328C15.1112 5.05551 15.3725 4.92217 15.6508 4.83328C15.929 4.7444 16.2121 4.69995 16.5001 4.69995C16.7881 4.69995 17.0717 4.7444 17.3508 4.83328C17.6299 4.92217 17.8908 5.05551 18.1334 5.23328L21.8334 8.06662V7.33328C21.8334 6.77773 22.0281 6.30573 22.4174 5.91728C22.8068 5.52884 23.2788 5.33417 23.8334 5.33328C24.3881 5.3324 24.8605 5.52706 25.2508 5.91728C25.641 6.30751 25.8352 6.77951 25.8334 7.33328V11.1333L30.1334 14.4C30.4223 14.6222 30.589 14.9111 30.6334 15.2666C30.6779 15.6222 30.589 15.9555 30.3668 16.2666C30.1445 16.5777 29.8556 16.7555 29.5001 16.8C29.1445 16.8444 28.8112 16.7555 28.5001 16.5333L16.5001 7.36662L4.50009 16.5333Z" fill="#045000"/>
</svg>
