<svg width="38" height="38" viewBox="0 0 38 38" fill="none" xmlns="http://www.w3.org/2000/svg">
<path d="M19 34.8332C17.7048 34.8332 16.4667 34.3107 13.9919 33.2657C7.83117 30.6627 4.75 29.3596 4.75 27.1698V11.0832M19 34.8332C20.2952 34.8332 21.5333 34.3107 24.0081 33.2657C30.1688 30.6627 33.25 29.3596 33.25 27.1698V11.0832M19 34.8332V17.9786M9.5 18.9998L12.6667 20.5832M26.9167 6.33317L11.0833 14.2498M13.1828 15.3439L8.55792 13.1067C6.01983 11.878 4.75 11.2637 4.75 10.2915C4.75 9.31934 6.01983 8.705 8.55792 7.47634L13.1812 5.23909C16.0392 3.85684 17.4642 3.1665 19 3.1665C20.5358 3.1665 21.9624 3.85684 24.8172 5.23909L29.4421 7.47634C31.9802 8.705 33.25 9.31934 33.25 10.2915C33.25 11.2637 31.9802 11.878 29.4421 13.1067L24.8188 15.3439C21.9608 16.7262 20.5358 17.4165 19 17.4165C17.4642 17.4165 16.0376 16.7262 13.1828 15.3439Z" stroke="#045000" stroke-width="2.375" stroke-linecap="round" stroke-linejoin="round"/>
</svg>
