<svg width="38" height="38" viewBox="0 0 38 38" fill="none" xmlns="http://www.w3.org/2000/svg">
<path d="M19 2.375V9.5M28.5 19H35.625M2.375 19H9.5M19 28.5V35.625M32.0625 19C32.0625 22.4644 30.6863 25.7869 28.2366 28.2366C25.7869 30.6863 22.4644 32.0625 19 32.0625C15.5356 32.0625 12.2131 30.6863 9.76342 28.2366C7.31372 25.7869 5.9375 22.4644 5.9375 19C5.9375 15.5356 7.31372 12.2131 9.76342 9.76342C12.2131 7.31372 15.5356 5.9375 19 5.9375C22.4644 5.9375 25.7869 7.31372 28.2366 9.76342C30.6863 12.2131 32.0625 15.5356 32.0625 19ZM20.1875 19C20.1875 19.3149 20.0624 19.617 19.8397 19.8397C19.617 20.0624 19.3149 20.1875 19 20.1875C18.6851 20.1875 18.383 20.0624 18.1603 19.8397C17.9376 19.617 17.8125 19.3149 17.8125 19C17.8125 18.6851 17.9376 18.383 18.1603 18.1603C18.383 17.9376 18.6851 17.8125 19 17.8125C19.3149 17.8125 19.617 17.9376 19.8397 18.1603C20.0624 18.383 20.1875 18.6851 20.1875 19Z" stroke="#045000" stroke-width="2.375"/>
</svg>
