<svg width="128" height="128" viewBox="0 0 128 128" fill="none" xmlns="http://www.w3.org/2000/svg">
<path d="M53.333 16.0005C53.333 14.586 53.8949 13.2295 54.8951 12.2293C55.8953 11.2291 57.2519 10.6672 58.6663 10.6672H69.333C70.7475 10.6672 72.1041 11.2291 73.1042 12.2293C74.1044 13.2295 74.6663 14.586 74.6663 16.0005V26.6672C74.6663 33.591 76.912 40.3281 81.0663 45.8672L84.2663 50.1338C88.4207 55.6729 90.6663 62.41 90.6663 69.3338V112.001C90.6663 113.415 90.1044 114.772 89.1042 115.772C88.1041 116.772 86.7475 117.334 85.333 117.334H42.6663C41.2519 117.334 39.8953 116.772 38.8951 115.772C37.8949 114.772 37.333 113.415 37.333 112.001V69.3338C37.333 62.41 39.5787 55.6729 43.733 50.1338L46.933 45.8672C51.0873 40.3281 53.333 33.591 53.333 26.6672V16.0005Z" stroke="white" stroke-width="10.6667" stroke-linecap="round" stroke-linejoin="round"/>
<path d="M90.6657 69.3342H69.3324C67.9179 69.3342 66.5613 69.8961 65.5611 70.8963C64.5609 71.8965 63.999 73.253 63.999 74.6675V90.6675C63.999 92.082 64.5609 93.4385 65.5611 94.4387C66.5613 95.4389 67.9179 96.0008 69.3324 96.0008H90.6657" stroke="white" stroke-width="10.6667" stroke-linecap="round" stroke-linejoin="round"/>
</svg>
