<svg width="129" height="128" viewBox="0 0 129 128" fill="none" xmlns="http://www.w3.org/2000/svg">
<path fill-rule="evenodd" clip-rule="evenodd" d="M43.5707 38.7203L44.0773 39.163L89.336 84.4163C89.9292 85.0089 90.3743 85.733 90.6352 86.5298C90.8961 87.3266 90.9655 88.1738 90.8377 89.0024C90.7099 89.8311 90.3885 90.618 89.8996 91.2991C89.4108 91.9803 88.7682 92.5367 88.024 92.923L87.4053 93.1896L32.0187 113.6C21.608 117.44 11.4693 107.654 14.632 97.259L14.8987 96.4803L35.304 41.0936C35.5738 40.36 36.0015 39.6945 36.557 39.1445C37.1124 38.5945 37.782 38.1733 38.5183 37.9107C39.2546 37.6481 40.0396 37.5506 40.8178 37.6251C41.5959 37.6996 42.3482 37.9442 43.0213 38.3417L43.5707 38.7203ZM42.4293 52.5977L24.9093 100.171C24.7465 100.614 24.7039 101.091 24.7859 101.556C24.868 102.02 25.0718 102.455 25.3765 102.815C25.6812 103.175 26.0759 103.447 26.5204 103.605C26.9649 103.763 27.4432 103.8 27.9067 103.712L28.3333 103.59L75.896 86.0643L42.4293 52.5977ZM91.736 61.8883C96.5947 62.1443 103.256 63.1683 109.048 66.6456C110.222 67.3418 111.085 68.4616 111.458 69.7746C111.831 71.0876 111.687 72.4938 111.055 73.7035C110.423 74.9133 109.351 75.8347 108.06 76.2778C106.768 76.721 105.357 76.6522 104.115 76.0856L103.56 75.7923C99.9227 73.6056 95.272 72.7523 91.176 72.539C89.4882 72.4457 87.7963 72.4528 86.1093 72.5603L84.424 72.7256C83.0327 72.9052 81.6267 72.5294 80.5106 71.6796C79.3945 70.8298 78.6581 69.5745 78.461 68.1856C78.2639 66.7967 78.6219 65.386 79.4575 64.2593C80.2931 63.1325 81.539 62.3803 82.9253 62.1656C85.8463 61.7888 88.7968 61.6941 91.736 61.883M102.536 47.0243C103.895 47.0272 105.201 47.5486 106.189 48.4822C107.176 49.4158 107.77 50.6911 107.849 52.0477C107.928 53.4044 107.486 54.7399 106.614 55.7818C105.741 56.8236 104.504 57.4932 103.155 57.6536L102.536 57.691H98.76C97.4011 57.6881 96.0945 57.1667 95.1071 56.2331C94.1196 55.2995 93.5258 54.0242 93.4469 52.6676C93.3679 51.3109 93.8098 49.9753 94.6822 48.9335C95.5547 47.8917 96.7919 47.2221 98.1413 47.0616L98.76 47.0243H102.536ZM85.5653 42.9337C86.4836 43.852 87.0352 45.0739 87.1167 46.37C87.1982 47.6662 86.804 48.9475 86.008 49.9736L85.5653 50.475L79.912 56.1336C78.9544 57.1003 77.6636 57.6645 76.3037 57.7106C74.9439 57.7568 73.6178 57.2814 72.5969 56.3818C71.576 55.4823 70.9376 54.2265 70.8122 52.8717C70.6869 51.5168 71.0841 50.1652 71.9227 49.0936L72.3653 48.5923L78.0187 42.939C78.514 42.4431 79.1022 42.0497 79.7496 41.7813C80.3971 41.5129 81.0911 41.3748 81.792 41.3748C82.4929 41.3748 83.1869 41.5129 83.8343 41.7813C84.4818 42.0497 85.07 42.4378 85.5653 42.9337ZM71.768 14.8537C74.1573 22.0323 72.8773 29.8937 71.384 35.387C70.4902 38.8129 69.2574 42.1413 67.704 45.323C67.0724 46.589 65.9638 47.5522 64.6221 48.0008C63.2803 48.4493 61.8153 48.3465 60.5493 47.715C59.2834 47.0834 58.3201 45.9748 57.8716 44.633C57.423 43.2913 57.5258 41.8263 58.1573 40.5603C59.3983 38.005 60.3809 35.3322 61.0907 32.5817C62.3013 28.1443 62.9093 23.3283 61.976 19.3817L61.6507 18.2297C61.4182 17.5627 61.3206 16.8561 61.3635 16.1511C61.4063 15.4461 61.5888 14.7566 61.9002 14.1227C62.2117 13.4887 62.646 12.923 63.178 12.4582C63.7099 11.9935 64.3288 11.6391 64.9988 11.4155C65.6688 11.1919 66.3766 11.1037 67.081 11.1559C67.7854 11.2081 68.4724 11.3996 69.1021 11.7195C69.7319 12.0393 70.2919 12.4811 70.7495 13.0191C71.2071 13.5572 71.5533 14.1807 71.768 14.8537ZM100.648 27.8563C101.648 28.8565 102.21 30.2128 102.21 31.627C102.21 33.0412 101.648 34.3975 100.648 35.3976L96.8773 39.1683C96.3853 39.6777 95.7968 40.084 95.1462 40.3635C94.4955 40.643 93.7956 40.7902 93.0875 40.7963C92.3793 40.8025 91.677 40.6675 91.0216 40.3994C90.3661 40.1312 89.7707 39.7352 89.2699 39.2344C88.7691 38.7337 88.3731 38.1382 88.1049 37.4827C87.8368 36.8273 87.7018 36.125 87.708 35.4168C87.7141 34.7087 87.8613 34.0088 88.1408 33.3582C88.4203 32.7075 88.8266 32.119 89.336 31.627L93.1067 27.8563C94.1068 26.8565 95.4631 26.2948 96.8773 26.2948C98.2915 26.2948 99.6479 26.8565 100.648 27.8563Z" fill="white"/>
</svg>
