<svg width="33" height="32" viewBox="0 0 33 32" fill="none" xmlns="http://www.w3.org/2000/svg">
<path d="M9.16675 25.3333C8.70008 25.3333 8.30541 25.1719 7.98275 24.8493C7.66008 24.5266 7.49919 24.1324 7.50008 23.6666C7.50097 23.2008 7.6623 22.8061 7.98408 22.4826C8.30586 22.159 8.70008 21.9981 9.16675 21.9999C9.63341 22.0017 10.0281 22.163 10.3507 22.4839C10.6734 22.8048 10.8343 23.199 10.8334 23.6666C10.8325 24.1341 10.6712 24.5288 10.3494 24.8506C10.0276 25.1724 9.63341 25.3333 9.16675 25.3333ZM13.1667 29.3333C12.7001 29.3333 12.3054 29.1719 11.9827 28.8493C11.6601 28.5266 11.4992 28.1324 11.5001 27.6666C11.501 27.2008 11.6623 26.8061 11.9841 26.4826C12.3059 26.159 12.7001 25.9981 13.1667 25.9999C13.6334 26.0017 14.0281 26.163 14.3507 26.4839C14.6734 26.8048 14.8343 27.199 14.8334 27.6666C14.8325 28.1341 14.6712 28.5288 14.3494 28.8506C14.0276 29.1724 13.6334 29.3333 13.1667 29.3333ZM17.1667 25.3333C16.7001 25.3333 16.3054 25.1719 15.9827 24.8493C15.6601 24.5266 15.4992 24.1324 15.5001 23.6666C15.501 23.2008 15.6623 22.8061 15.9841 22.4826C16.3059 22.159 16.7001 21.9981 17.1667 21.9999C17.6334 22.0017 18.0281 22.163 18.3507 22.4839C18.6734 22.8048 18.8343 23.199 18.8334 23.6666C18.8325 24.1341 18.6712 24.5288 18.3494 24.8506C18.0276 25.1724 17.6334 25.3333 17.1667 25.3333ZM25.1667 25.3333C24.7001 25.3333 24.3054 25.1719 23.9827 24.8493C23.6601 24.5266 23.4992 24.1324 23.5001 23.6666C23.501 23.2008 23.6623 22.8061 23.9841 22.4826C24.3059 22.159 24.7001 21.9981 25.1667 21.9999C25.6334 22.0017 26.0281 22.163 26.3507 22.4839C26.6734 22.8048 26.8343 23.199 26.8334 23.6666C26.8325 24.1341 26.6712 24.5288 26.3494 24.8506C26.0276 25.1724 25.6334 25.3333 25.1667 25.3333ZM21.1667 29.3333C20.7001 29.3333 20.3054 29.1719 19.9827 28.8493C19.6601 28.5266 19.4992 28.1324 19.5001 27.6666C19.501 27.2008 19.6623 26.8061 19.9841 26.4826C20.3059 26.159 20.7001 25.9981 21.1667 25.9999C21.6334 26.0017 22.0281 26.163 22.3507 26.4839C22.6734 26.8048 22.8343 27.199 22.8334 27.6666C22.8325 28.1341 22.6712 28.5288 22.3494 28.8506C22.0276 29.1724 21.6334 29.3333 21.1667 29.3333ZM10.5001 19.9999C8.47786 19.9999 6.7503 19.2835 5.31741 17.8506C3.88453 16.4177 3.16764 14.6897 3.16675 12.6666C3.16675 10.8221 3.77786 9.21103 5.00008 7.83325C6.2223 6.45548 7.73342 5.64436 9.53341 5.39992C10.2445 4.13325 11.217 3.13859 12.4507 2.41592C13.6845 1.69325 15.0343 1.33236 16.5001 1.33325C18.5001 1.33325 20.2392 1.97236 21.7174 3.25059C23.1956 4.52881 24.0899 6.12303 24.4001 8.03325C25.9334 8.16659 27.2223 8.79992 28.2668 9.93325C29.3112 11.0666 29.8334 12.4221 29.8334 13.9999C29.8334 15.6666 29.2503 17.0835 28.0841 18.2506C26.9179 19.4177 25.501 20.0008 23.8334 19.9999H10.5001ZM10.5001 17.3333H23.8334C24.7667 17.3333 25.5556 17.011 26.2001 16.3666C26.8445 15.7221 27.1667 14.9333 27.1667 13.9999C27.1667 13.0666 26.8445 12.2777 26.2001 11.6333C25.5556 10.9888 24.7667 10.6666 23.8334 10.6666H21.8334V9.33325C21.8334 7.86659 21.3112 6.61103 20.2667 5.56659C19.2223 4.52214 17.9667 3.99992 16.5001 3.99992C15.4334 3.99992 14.4614 4.28881 13.5841 4.86659C12.7067 5.44437 12.0454 6.22214 11.6001 7.19992L11.2667 7.99992H10.4334C9.16675 8.04437 8.08364 8.51681 7.18408 9.41725C6.28453 10.3177 5.8343 11.4008 5.83341 12.6666C5.83341 13.9555 6.28897 15.0555 7.20008 15.9666C8.11119 16.8777 9.21119 17.3333 10.5001 17.3333Z" fill="#045000"/>
</svg>
