<svg width="49" height="48" viewBox="0 0 49 48" fill="none" xmlns="http://www.w3.org/2000/svg">
<rect x="0.666504" width="48" height="48" rx="8" fill="#00463A"/>
<path d="M30.2132 8.18823C30.4426 8.31445 30.6677 8.44601 30.8888 8.5829C35.2772 11.3011 38.2115 16.1029 38.2781 21.5873L41.6088 26.23C42.1092 26.9278 42.0221 27.8709 41.2861 28.3136C40.5483 28.758 39.4523 29.2771 37.967 29.6362L37.4639 35.6078C37.4337 35.9655 37.3316 36.3134 37.1638 36.6306C36.9959 36.9479 36.7657 37.228 36.487 37.4542C36.2083 37.6804 35.8868 37.848 35.5417 37.9469C35.1967 38.0458 34.8352 38.0741 34.479 38.03L31.9901 37.7225V40.8887C31.9901 41.3599 31.8031 41.8118 31.47 42.1451C31.137 42.4785 30.6853 42.666 30.2141 42.6665H14.9012C14.4299 42.6662 13.9779 42.4788 13.6447 42.1454C13.3115 41.8121 13.1243 41.36 13.1243 40.8887V34.222C9.30656 31.3847 6.83545 26.8665 6.83545 21.7776C6.83545 16.2131 9.78745 11.3331 14.2266 8.5829" stroke="white" stroke-width="2.66667" stroke-linecap="round" stroke-linejoin="round"/>
<path d="M18.4649 15.1617C17.1049 15.9409 16.0404 17.1476 15.437 18.5942C14.8336 20.0408 14.725 21.6463 15.1282 23.161C15.5313 24.6757 16.4237 26.0147 17.6664 26.9699C18.9091 27.9251 20.4326 28.443 22 28.443C23.5674 28.443 25.091 27.9251 26.3337 26.9699C27.5764 26.0147 28.4687 24.6757 28.8719 23.161C29.275 21.6463 29.1665 20.0408 28.5631 18.5942C27.9596 17.1476 26.8952 15.9409 25.5351 15.1617C25.5476 14.3801 25.5544 13.4743 25.5556 12.4444C25.5556 10.1768 25.5165 8.52882 25.4756 7.4266C25.4374 6.35993 24.7165 5.4826 23.6534 5.39549C23.1033 5.35338 22.5517 5.33262 22 5.33327C21.3494 5.33327 20.8 5.35904 20.3467 5.39549C19.2836 5.4826 18.5627 6.35993 18.5245 7.4266C18.4827 8.52882 18.4445 10.1768 18.4445 12.4444C18.4451 13.4749 18.4519 14.3807 18.4649 15.1617Z" stroke="white" stroke-width="2.66667" stroke-linecap="round" stroke-linejoin="round"/>
<path d="M22 28.4446C24.6667 31.1112 28.7556 32.889 32.6667 32.889" stroke="white" stroke-width="2.66667" stroke-linecap="round" stroke-linejoin="round"/>
</svg>
