<svg width="48" height="48" viewBox="0 0 48 48" fill="none" xmlns="http://www.w3.org/2000/svg">
<rect width="48" height="48" rx="8" fill="#00463A"/>
<path d="M25.7778 24H34.6667M25.7778 29.3333H32.8889M25.7778 34.6667H27.5556M25.7778 18.6667H32.8889M25.7778 13.3333H27.5556M8 24C8 26.1012 8.41385 28.1817 9.21793 30.1229C10.022 32.0641 11.2006 33.828 12.6863 35.3137C14.172 36.7994 15.9359 37.978 17.8771 38.7821C19.8183 39.5861 21.8989 40 24 40C26.1012 40 28.1817 39.5861 30.1229 38.7821C32.0641 37.978 33.828 36.7994 35.3137 35.3137C36.7994 33.828 37.978 32.0641 38.7821 30.1229C39.5861 28.1817 40 26.1012 40 24C40 21.8989 39.5861 19.8183 38.7821 17.8771C37.978 15.9359 36.7994 14.172 35.3137 12.6863C33.828 11.2006 32.0641 10.022 30.1229 9.21793C28.1817 8.41385 26.1012 8 24 8C21.8989 8 19.8183 8.41385 17.8771 9.21793C15.9359 10.022 14.172 11.2006 12.6863 12.6863C11.2006 14.172 10.022 15.9359 9.21793 17.8771C8.41385 19.8183 8 21.8989 8 24Z" stroke="white" stroke-width="3.55556" stroke-linecap="round" stroke-linejoin="round"/>
</svg>
