<svg width="32" height="32" viewBox="0 0 32 32" fill="none" xmlns="http://www.w3.org/2000/svg">
<path d="M10.6667 29.3335H21.3334M6.66675 25.3335H25.3334M2.66675 21.3335H29.3334" stroke="#045000" stroke-width="2" stroke-linecap="round" stroke-linejoin="round"/>
<path d="M16.0002 8.00024C14.4605 8.00016 12.9535 8.44438 11.6601 9.27959C10.3666 10.1148 9.34167 11.3055 8.70821 12.7088C8.07475 14.1122 7.8597 15.6685 8.08888 17.191C8.31805 18.7135 8.9817 20.1376 10.0002 21.2922H22.0002C23.0187 20.1376 23.6823 18.7135 23.9115 17.191C24.1407 15.6685 23.9256 14.1122 23.2922 12.7088C22.6587 11.3055 21.6338 10.1148 20.3403 9.27959C19.0469 8.44438 17.5399 8.00016 16.0002 8.00024Z" stroke="#045000" stroke-width="2"/>
<path d="M16.0001 2.66675V4.00008M29.3334 16.0001H28.0001M4.00008 16.0001H2.66675M25.4267 6.57341L24.9041 7.09741M7.09608 7.09608L6.57208 6.57208" stroke="#045000" stroke-width="2" stroke-linecap="round"/>
</svg>
