<svg width="38" height="38" viewBox="0 0 38 38" fill="none" xmlns="http://www.w3.org/2000/svg">
<path d="M14.25 10.5118V32.4583M23.75 4.75V26.9167M4.75 13.7908C4.75 11.457 4.75 10.2917 5.37225 9.61083C5.59247 9.36863 5.86038 9.17457 6.15917 9.04083C7.0015 8.66717 8.10825 9.03608 10.3218 9.77392C12.0112 10.3376 12.8551 10.6194 13.7101 10.5893C14.0237 10.579 14.3356 10.5377 14.6411 10.4658C15.4723 10.2679 16.2133 9.77392 17.6953 8.7875L19.8835 7.32767C21.7835 6.061 22.7319 5.42767 23.8213 5.28358C24.9106 5.13633 25.9936 5.49733 28.158 6.21933L30.0026 6.83367C31.5701 7.35617 32.3538 7.61742 32.8019 8.23967C33.25 8.86192 33.25 9.69 33.25 11.3398V24.2108C33.25 26.543 33.25 27.7099 32.6278 28.3908C32.4072 28.6318 32.1393 28.8248 31.8408 28.9576C30.9985 29.3328 29.8918 28.9639 27.6783 28.2261C25.9888 27.6624 25.1449 27.3806 24.2899 27.4107C23.9763 27.421 23.6644 27.4623 23.3589 27.5342C22.5277 27.7321 21.7867 28.2261 20.3047 29.2125L18.1165 30.6723C16.2165 31.939 15.2681 32.5723 14.1788 32.7164C13.0894 32.8637 12.0064 32.5027 9.842 31.7807L7.99742 31.1663C6.42992 30.6438 5.64617 30.3826 5.19808 29.7603C4.75 29.1381 4.75 28.31 4.75 26.6602V13.7908Z" stroke="#045000" stroke-width="2.375"/>
</svg>
