<svg width="128" height="128" viewBox="0 0 128 128" fill="none" xmlns="http://www.w3.org/2000/svg">
<path d="M117.334 64H10.667M64.0003 10.6667V117.333M69.3337 64C69.3337 69.658 71.5813 75.0842 75.582 79.085C79.5828 83.0857 85.009 85.3334 90.667 85.3334M58.667 64C58.667 69.658 56.4194 75.0842 52.4186 79.085C48.4178 83.0857 42.9916 85.3334 37.3337 85.3334" stroke="white" stroke-width="8" stroke-linecap="round"/>
<path d="M63.9997 53.5194C64.0027 49.6578 65.2952 45.9078 67.672 42.8643C70.0488 39.8208 73.3739 37.6581 77.1197 36.7194C85.6691 34.5861 93.4184 42.3301 91.2797 50.8848C90.341 54.6306 88.1784 57.9557 85.1349 60.3325C82.0914 62.7093 78.3414 64.0018 74.4797 64.0048H63.9997M63.9997 53.5194V64.0048M63.9997 53.5194C63.9967 49.6578 62.7043 45.9078 60.3275 42.8643C57.9506 39.8208 54.6255 37.6581 50.8797 36.7194C42.3304 34.5861 34.5811 42.3301 36.7197 50.8848C37.6584 54.6306 39.821 57.9557 42.8645 60.3325C45.908 62.7093 49.6581 64.0018 53.5197 64.0048H63.9997" stroke="white" stroke-width="8"/>
<path d="M10.667 64C10.667 38.8587 10.667 26.288 18.475 18.4747C26.2937 10.6667 38.859 10.6667 64.0003 10.6667C89.1417 10.6667 101.712 10.6667 109.52 18.4747C117.334 26.2934 117.334 38.8587 117.334 64C117.334 89.1414 117.334 101.712 109.52 109.52C101.718 117.333 89.1417 117.333 64.0003 117.333C38.859 117.333 26.2883 117.333 18.475 109.52C10.667 101.717 10.667 89.1414 10.667 64Z" stroke="white" stroke-width="8"/>
</svg>
