<svg width="24" height="24" viewBox="0 0 24 24" fill="none" xmlns="http://www.w3.org/2000/svg">
<rect width="24" height="24" rx="4" fill="#00463A"/>
<path d="M4.00004 10C4.00004 9.82319 4.07027 9.65362 4.1953 9.5286C4.32032 9.40357 4.48989 9.33333 4.6667 9.33333H6.00004C6.17685 9.33333 6.34642 9.40357 6.47144 9.5286C6.59647 9.65362 6.6667 9.82319 6.6667 10C6.6667 10.1768 6.59647 10.3464 6.47144 10.4714C6.34642 10.5964 6.17685 10.6667 6.00004 10.6667H4.6667C4.48989 10.6667 4.32032 10.5964 4.1953 10.4714C4.07027 10.3464 4.00004 10.1768 4.00004 10ZM7.28587 6.22917C7.41096 6.35426 7.58063 6.42454 7.75754 6.42454C7.93445 6.42454 8.10411 6.35426 8.2292 6.22917C8.3543 6.10407 8.42457 5.93441 8.42457 5.7575C8.42457 5.58059 8.3543 5.41093 8.2292 5.28583L7.28587 4.34333C7.15983 4.22359 6.992 4.15781 6.81815 4.16004C6.64431 4.16227 6.47822 4.23231 6.35528 4.35525C6.23235 4.47818 6.1623 4.64428 6.16008 4.81812C6.15785 4.99196 6.22362 5.15979 6.34337 5.28583L7.28587 6.22917ZM12 4.66667C12.1768 4.66667 12.3464 4.59643 12.4714 4.4714C12.5965 4.34638 12.6667 4.17681 12.6667 4V2.66667C12.6667 2.48986 12.5965 2.32029 12.4714 2.19526C12.3464 2.07024 12.1768 2 12 2C11.8232 2 11.6537 2.07024 11.5286 2.19526C11.4036 2.32029 11.3334 2.48986 11.3334 2.66667V4C11.3334 4.17681 11.4036 4.34638 11.5286 4.4714C11.6537 4.59643 11.8232 4.66667 12 4.66667ZM16.2425 6.42417C16.3301 6.42424 16.4168 6.40705 16.4978 6.37359C16.5787 6.34013 16.6522 6.29106 16.7142 6.22917L17.6567 5.28583C17.7765 5.15979 17.8422 4.99196 17.84 4.81812C17.8378 4.64428 17.7677 4.47818 17.6448 4.35525C17.5219 4.23231 17.3558 4.16227 17.1819 4.16004C17.0081 4.15781 16.8402 4.22359 16.7142 4.34333L15.7709 5.28583C15.6775 5.37907 15.614 5.49791 15.5882 5.6273C15.5624 5.75669 15.5756 5.89081 15.6261 6.01269C15.6766 6.13458 15.7622 6.23873 15.8719 6.31198C15.9816 6.38523 16.1106 6.42427 16.2425 6.42417ZM17.3334 10C17.3334 10.1768 17.4036 10.3464 17.5286 10.4714C17.6537 10.5964 17.8232 10.6667 18 10.6667H19.3334C19.5102 10.6667 19.6798 10.5964 19.8048 10.4714C19.9298 10.3464 20 10.1768 20 10C20 9.82319 19.9298 9.65362 19.8048 9.5286C19.6798 9.40357 19.5102 9.33333 19.3334 9.33333H18C17.8232 9.33333 17.6537 9.40357 17.5286 9.5286C17.4036 9.65362 17.3334 9.82319 17.3334 10ZM8.6667 10.6667C8.84351 10.6667 9.01308 10.5964 9.13811 10.4714C9.26313 10.3464 9.33337 10.1768 9.33337 10C9.33337 9.29276 9.61432 8.61448 10.1144 8.11438C10.6145 7.61428 11.2928 7.33333 12 7.33333C12.7073 7.33333 13.3856 7.61428 13.8857 8.11438C14.3858 8.61448 14.6667 9.29276 14.6667 10C14.6667 10.1768 14.7369 10.3464 14.862 10.4714C14.987 10.5964 15.1566 10.6667 15.3334 10.6667C15.5102 10.6667 15.6798 10.5964 15.8048 10.4714C15.9298 10.3464 16 10.1768 16 10C16 8.93913 15.5786 7.92172 14.8285 7.17157C14.0783 6.42143 13.0609 6 12 6C10.9392 6 9.92176 6.42143 9.17161 7.17157C8.42146 7.92172 8.00004 8.93913 8.00004 10C8.00004 10.1768 8.07027 10.3464 8.1953 10.4714C8.32032 10.5964 8.48989 10.6667 8.6667 10.6667ZM21.2425 19.6667C21.1842 19.7678 21.1002 19.8518 20.9992 19.9103C20.8981 19.9688 20.7835 19.9997 20.6667 20H3.33337C3.21657 20.0005 3.10167 19.9704 3.00019 19.9126C2.89871 19.8547 2.8142 19.7713 2.75512 19.6705C2.69605 19.5697 2.66449 19.4552 2.66359 19.3384C2.6627 19.2216 2.69251 19.1067 2.75004 19.005L6.14087 13.005C6.19925 12.9018 6.28407 12.8161 6.3866 12.7566C6.48914 12.6972 6.60567 12.6661 6.7242 12.6667H17.275C17.3936 12.6661 17.5101 12.6972 17.6126 12.7566C17.7152 12.8161 17.8 12.9018 17.8584 13.005L21.2492 19.005C21.3058 19.1063 21.3349 19.2207 21.3338 19.3367C21.3326 19.4528 21.3011 19.5665 21.2425 19.6667ZM16.8867 14H14.8559L15.1459 15.3333H17.64L16.8867 14ZM13.7817 15.3333L13.4917 14H10.5084L10.2184 15.3333H13.7817ZM9.92837 16.6667L9.4942 18.6667H14.5059L14.0717 16.6667H9.92837ZM6.36004 15.3333H8.8542L9.1442 14H7.11337L6.36004 15.3333ZM4.47587 18.6667H8.1292L8.5642 16.6667H5.6067L4.47587 18.6667ZM19.5242 18.6667L18.3934 16.6667H15.4359L15.8709 18.6667H19.5242Z" fill="white"/>
</svg>
