<svg width="48" height="48" viewBox="0 0 48 48" fill="none" xmlns="http://www.w3.org/2000/svg">
<rect width="48" height="48" rx="8" fill="#00463A"/>
<path d="M22.9722 15.7831C23.4576 15.3351 23.7011 15.1111 23.9998 15.1111C24.2984 15.1111 24.542 15.3351 25.0273 15.7831L25.8558 16.5475C26.11 16.784 26.238 16.9013 26.3998 16.9511C26.5633 17.0009 26.7376 16.9778 27.0896 16.9298L28.2309 16.7769C28.8993 16.6862 29.2353 16.6418 29.4753 16.8089C29.7189 16.976 29.7776 17.2942 29.8931 17.9289L30.0922 19.0115C30.1544 19.3458 30.1847 19.5111 30.286 19.6444C30.3856 19.776 30.542 19.8542 30.8549 20.0142L31.8736 20.5298C32.4709 20.832 32.7696 20.9813 32.862 21.2533C32.9545 21.5253 32.8051 21.8133 32.5082 22.3929L32.0033 23.3813C31.8469 23.6835 31.7687 23.8364 31.7687 24C31.7687 24.1635 31.8469 24.3146 32.0033 24.6186L32.5082 25.6071C32.8051 26.1866 32.9527 26.4764 32.862 26.7466C32.7696 27.0186 32.4709 27.1698 31.8736 27.472L30.8549 27.9875C30.542 28.1458 30.3856 28.224 30.286 28.3555C30.1847 28.4889 30.1544 28.6542 30.0922 28.9884L29.8931 30.0711C29.7776 30.7058 29.7189 31.024 29.4771 31.1911C29.2353 31.3582 28.8993 31.3138 28.2309 31.2231L27.0896 31.0702C26.7393 31.0222 26.5633 30.9991 26.3998 31.0489C26.238 31.0986 26.11 31.2178 25.8558 31.4524L25.0273 32.2169C24.542 32.6649 24.2984 32.8889 23.9998 32.8889C23.7011 32.8889 23.4576 32.6649 22.9722 32.2169L22.1438 31.4524C21.8896 31.216 21.7616 31.0986 21.5998 31.0489C21.4362 30.9991 21.262 31.0222 20.91 31.0702L19.7687 31.2231C19.1002 31.3138 18.7642 31.3582 18.5242 31.1911C18.2807 31.024 18.222 30.7058 18.1064 30.0711L17.9073 28.9884C17.8451 28.656 17.8149 28.4889 17.7153 28.3573C17.614 28.224 17.4576 28.144 17.1447 27.9858L16.126 27.4702C15.5287 27.168 15.23 27.0186 15.1376 26.7466C15.0451 26.4746 15.1944 26.1866 15.4913 25.6071L15.9962 24.6186C16.1527 24.3164 16.2309 24.1635 16.2309 24C16.2309 23.8364 16.1527 23.6853 15.9962 23.3813L15.4913 22.3929C15.1944 21.8133 15.0469 21.5235 15.1376 21.2533C15.23 20.9813 15.5287 20.8302 16.126 20.528L17.1447 20.0124C17.4576 19.8542 17.614 19.776 17.7136 19.6444C17.8149 19.5111 17.8451 19.3458 17.9073 19.0115L18.1064 17.9289C18.222 17.2942 18.2807 16.976 18.5224 16.8089C18.7642 16.6418 19.1002 16.6862 19.7687 16.7769L20.91 16.9298C21.2602 16.9778 21.4362 17.0009 21.5998 16.9511C21.7616 16.9013 21.8896 16.784 22.1438 16.5475L22.9722 15.7831Z" stroke="white" stroke-width="2.66667" stroke-linecap="round" stroke-linejoin="round"/>
<path d="M14.192 9.16975C13.8686 8.81282 13.476 8.52532 13.0381 8.3247C12.6002 8.12407 12.1262 8.01451 11.6446 8.00266C11.1631 7.9908 10.6842 8.0769 10.237 8.25573C9.78979 8.43456 9.38356 8.70239 9.04298 9.04298C8.70239 9.38356 8.43456 9.78979 8.25573 10.237C8.0769 10.6842 7.9908 11.1631 8.00266 11.6446C8.01451 12.1262 8.12407 12.6002 8.3247 13.0381C8.52532 13.476 8.81282 13.8686 9.16975 14.192M14.192 9.16975C14.8048 9.84611 15.1341 10.7322 15.1116 11.6446C15.0891 12.5571 14.7167 13.4259 14.0713 14.0713C13.4259 14.7167 12.5571 15.0891 11.6446 15.1116C10.7322 15.1341 9.84611 14.8048 9.16975 14.192M14.192 9.16975C17.0991 7.2416 20.5115 6.21609 24 6.2222C33.8186 6.2222 41.7778 14.1813 41.7778 24C41.7837 27.4761 40.7653 30.877 38.8498 33.7778M9.16975 14.192C7.2416 17.0991 6.21609 20.5115 6.2222 24C6.2222 33.8186 14.1813 41.7778 24 41.7778C27.4884 41.7839 30.9008 40.7583 33.808 38.8302M33.808 38.8302C34.4407 39.5294 35.3253 39.9487 36.2672 39.9957C37.209 40.0427 38.131 39.7136 38.8302 39.0809C39.5294 38.4481 39.9487 37.5635 39.9957 36.6217C40.0427 35.6798 39.7136 34.7579 39.0809 34.0586C38.7676 33.7124 38.3891 33.4313 37.9672 33.2313C37.5452 33.0314 37.088 32.9164 36.6217 32.8932C36.1553 32.8699 35.6889 32.9387 35.2492 33.0957C34.8094 33.2526 34.4049 33.4947 34.0586 33.808C33.7124 34.1213 33.4313 34.4997 33.2313 34.9217C33.0314 35.3436 32.9164 35.8008 32.8932 36.2672C32.8462 37.209 33.1752 38.131 33.808 38.8302Z" stroke="white" stroke-width="2.66667" stroke-linecap="round" stroke-linejoin="round"/>
</svg>
