<svg width="48" height="48" viewBox="0 0 48 48" fill="none" xmlns="http://www.w3.org/2000/svg">
<rect width="48" height="48" rx="8" fill="#00463A"/>
<path d="M24.1663 30.7085C24.1663 30.8918 24.308 31.0418 24.4788 31.0418H32.1872C32.358 31.0418 32.4997 30.8918 32.4997 30.7085V28.7085C32.4997 28.5252 32.358 28.3752 32.1872 28.3752H24.4788C24.308 28.3752 24.1663 28.5252 24.1663 28.7085V30.7085ZM16.0455 30.9627L24.0455 24.2543C24.2038 24.121 24.2038 23.8752 24.0455 23.7418L16.0455 17.0377C15.9972 16.9966 15.9381 16.9702 15.8753 16.9618C15.8125 16.9533 15.7486 16.963 15.6911 16.9897C15.6336 17.0165 15.585 17.0592 15.5511 17.1127C15.5172 17.1663 15.4993 17.2284 15.4997 17.2918V19.9043C15.4997 20.0043 15.5413 20.096 15.6205 20.1585L20.1955 24.0002L15.6205 27.8418C15.5833 27.873 15.5532 27.9119 15.5323 27.9557C15.5115 27.9996 15.5003 28.0474 15.4997 28.096V30.7085C15.4997 30.9918 15.8288 31.146 16.0455 30.9627ZM39.333 7.3335H8.66634C7.92884 7.3335 7.33301 7.92933 7.33301 8.66683V39.3335C7.33301 40.071 7.92884 40.6668 8.66634 40.6668H39.333C40.0705 40.6668 40.6663 40.071 40.6663 39.3335V8.66683C40.6663 7.92933 40.0705 7.3335 39.333 7.3335ZM37.6663 37.6668H10.333V10.3335H37.6663V37.6668Z" fill="white"/>
</svg>
